<?xml version="1.0" standalone="no"?>
<!DOCTYPE svg PUBLIC "-//W3C//DTD SVG 20010904//EN"
 "http://www.w3.org/TR/2001/REC-SVG-20010904/DTD/svg10.dtd">
<svg version="1.0" xmlns="http://www.w3.org/2000/svg"
 width="128.000000pt" height="128.000000pt" viewBox="0 0 128.000000 128.000000"
 preserveAspectRatio="xMidYMid meet">

<g transform="translate(0.000000,128.000000) scale(0.100000,-0.100000)"
fill="#000000" stroke="none">
<path d="M0 640 l0 -640 640 0 640 0 0 640 0 640 -640 0 -640 0 0 -640z m908
449 l3 -55 -256 -262 c-150 -152 -251 -264 -243 -266 7 -2 63 -9 124 -15 202
-20 335 -69 514 -186 l85 -56 -107 7 -106 6 14 -68 c8 -38 17 -80 20 -94 4
-20 -13 -7 -78 56 -172 167 -271 208 -538 223 l-115 6 0 62 0 62 238 246 c159
163 237 250 233 260 -4 13 -40 15 -225 15 -121 0 -226 3 -235 6 -12 4 -16 20
-16 53 0 26 3 51 7 54 4 4 158 6 342 5 l336 -3 3 -56z"/>
</g>
</svg>
